<svg width="42" height="39" viewBox="0 0 42 39" fill="none" xmlns="http://www.w3.org/2000/svg">
<rect x="0.631836" y="0.5" width="40.6692" height="38" rx="8" fill="#202022"/>
<path d="M28.1406 12.84C26.7851 12.2058 25.3511 11.7552 23.8764 11.5C23.6928 11.8321 23.4782 12.2787 23.3302 12.6341C21.7402 12.395 20.1649 12.395 18.6043 12.6341C18.4563 12.2788 18.2369 11.8321 18.0515 11.5C16.5754 11.7553 15.1402 12.2071 13.784 12.8433C11.0854 16.9214 10.3538 20.898 10.7196 24.8184C12.5095 26.155 14.2441 26.967 15.9495 27.4984C16.3733 26.9155 16.748 26.2985 17.0696 25.6536C16.4573 25.4205 15.867 25.1332 15.3057 24.7952C15.4534 24.6857 15.5977 24.5716 15.7382 24.4531C19.1391 26.0438 22.8343 26.0438 26.1947 24.4531C26.3358 24.5708 26.48 24.6849 26.6271 24.7952C26.0649 25.1341 25.4735 25.4219 24.86 25.6553C25.1835 26.3028 25.5574 26.9205 25.9801 27.5C27.6871 26.9687 29.4233 26.1567 31.2132 24.8184C31.6424 20.2738 30.4801 16.3335 28.1406 12.8399V12.84ZM17.5329 22.4075C16.512 22.4075 15.6747 21.4543 15.6747 20.2937C15.6747 19.1331 16.4941 18.1783 17.5329 18.1783C18.5718 18.1783 19.409 19.1314 19.3911 20.2937C19.3928 21.4543 18.5718 22.4075 17.5329 22.4075ZM24.3999 22.4075C23.3789 22.4075 22.5417 21.4543 22.5417 20.2937C22.5417 19.1331 23.3611 18.1783 24.3999 18.1783C25.4387 18.1783 26.2759 19.1314 26.2581 20.2937C26.2581 21.4543 25.4387 22.4075 24.3999 22.4075Z" fill="white"/>
</svg>
