<svg width="136" height="136" viewBox="0 0 136 136" fill="none" xmlns="http://www.w3.org/2000/svg">
<circle cx="68" cy="68" r="66" fill="#7B61FF" stroke="white" stroke-width="4"/>
<path d="M73.7239 55.057C74.2446 54.5363 75.0888 54.5363 75.6095 55.057L80.9428 60.3904C81.4635 60.9111 81.4635 61.7553 80.9428 62.276L63.6095 79.6093C63.3594 79.8594 63.0203 79.9998 62.6667 79.9998H57.3333C56.597 79.9998 56 79.4029 56 78.6665V73.3332C56 72.9795 56.1405 72.6404 56.3905 72.3904L69.7236 59.0573L73.7239 55.057ZM70.6667 61.8855L58.6667 73.8855V77.3332H62.1144L74.1144 65.3332L70.6667 61.8855ZM76 63.4476L78.1144 61.3332L74.6667 57.8855L72.5523 59.9998L76 63.4476Z" fill="white"/>
</svg>
