<svg width="39" height="39" viewBox="0 0 39 39" fill="none" xmlns="http://www.w3.org/2000/svg">
<rect x="0.553711" y="0.5" width="38" height="38" rx="8" fill="#202022"/>
<path d="M19.5537 20.5C20.106 20.5 20.5537 20.0523 20.5537 19.5C20.5537 18.9477 20.106 18.5 19.5537 18.5C19.0014 18.5 18.5537 18.9477 18.5537 19.5C18.5537 20.0523 19.0014 20.5 19.5537 20.5Z" stroke="white" stroke-width="2" stroke-linecap="round" stroke-linejoin="round"/>
<path d="M26.5537 20.5C27.106 20.5 27.5537 20.0523 27.5537 19.5C27.5537 18.9477 27.106 18.5 26.5537 18.5C26.0014 18.5 25.5537 18.9477 25.5537 19.5C25.5537 20.0523 26.0014 20.5 26.5537 20.5Z" stroke="white" stroke-width="2" stroke-linecap="round" stroke-linejoin="round"/>
<path d="M12.5537 20.5C13.106 20.5 13.5537 20.0523 13.5537 19.5C13.5537 18.9477 13.106 18.5 12.5537 18.5C12.0014 18.5 11.5537 18.9477 11.5537 19.5C11.5537 20.0523 12.0014 20.5 12.5537 20.5Z" stroke="white" stroke-width="2" stroke-linecap="round" stroke-linejoin="round"/>
</svg>
