<svg width="40" height="39" viewBox="0 0 40 39" fill="none" xmlns="http://www.w3.org/2000/svg">
<rect x="0.300781" y="0.5" width="39.6988" height="38" rx="8" fill="#202022"/>
<path d="M27.9758 15.4875C27.9888 15.6629 27.9888 15.8373 27.9888 16.0117C27.9888 21.3494 23.9261 27.5 16.5015 27.5C14.2141 27.5 12.089 26.8374 10.3008 25.6867C10.6256 25.7238 10.9383 25.7368 11.2761 25.7368C13.0934 25.7412 14.8593 25.1335 16.289 24.0117C15.4464 23.9965 14.6296 23.7185 13.9527 23.2166C13.2757 22.7146 12.7724 22.0139 12.513 21.2121C12.7626 21.2492 13.0132 21.2742 13.2758 21.2742C13.6377 21.2742 14.0016 21.2241 14.3394 21.1369C13.425 20.9523 12.6027 20.4566 12.0125 19.7342C11.4222 19.0119 11.1004 18.1073 11.1017 17.1745V17.1244C11.64 17.4241 12.2644 17.6115 12.926 17.6366C12.3718 17.2683 11.9173 16.7685 11.6032 16.1819C11.2891 15.5953 11.1251 14.94 11.1257 14.2746C11.1257 13.5248 11.3252 12.8372 11.675 12.2378C12.6896 13.4857 13.955 14.5067 15.3892 15.2345C16.8234 15.9624 18.3946 16.3808 20.0008 16.4628C19.9387 16.1621 19.9006 15.8503 19.9006 15.5376C19.9003 15.0073 20.0046 14.4821 20.2074 13.9922C20.4102 13.5022 20.7076 13.057 21.0826 12.682C21.4576 12.307 21.9028 12.0096 22.3927 11.8068C22.8827 11.604 23.4079 11.4997 23.9382 11.5C25.1009 11.5 26.1504 11.9872 26.8882 12.775C27.7921 12.6002 28.6589 12.2703 29.4503 11.7997C29.149 12.7327 28.5178 13.5239 27.675 14.025C28.4767 13.9336 29.2602 13.7227 29.9996 13.3995C29.4474 14.2045 28.7631 14.9104 27.9758 15.4875Z" fill="white"/>
</svg>
